<svg xmlns="http://www.w3.org/2000/svg" viewBox="0 0 24 24" fill="currentColor">
  <rect x="11.4" y="11" width="1.2" height="11" rx="0.6"></rect>
  <ellipse cx="12" cy="4" rx="3" ry="2.5" opacity="0.9"></ellipse>
  <path d="M12 10 C12 10 7.5 7.5 6 4.5 C6 4.5 10.5 6 12 10Z" opacity="0.8"></path>
  <path d="M12 10 C12 10 16.5 7.5 18 4.5 C18 4.5 13.5 6 12 10Z" opacity="0.8"></path>
  <path d="M12 15.5 C12 15.5 7 13 5 9.5 C5 9.5 9.5 11.5 12 15.5Z" opacity="0.65"></path>
  <path d="M12 15.5 C12 15.5 17 13 19 9.5 C19 9.5 14.5 11.5 12 15.5Z" opacity="0.65"></path>
</svg>
